<svg width="23" height="20" viewBox="0 0 23 20" fill="none" xmlns="http://www.w3.org/2000/svg">
<path d="M0.689562 4.13737H18.6182C18.9991 4.13737 19.3077 3.82879 19.3077 3.44781V0.689562C19.3077 0.308579 18.9991 0 18.6182 0H0.689562C0.308579 0 0 0.308579 0 0.689562V3.44781C0 3.82879 0.308579 4.13737 0.689562 4.13737ZM21.3764 7.58518H3.44781C3.06683 7.58518 2.75825 7.89376 2.75825 8.27474V11.033C2.75825 11.414 3.06683 11.7225 3.44781 11.7225H21.3764C21.7574 11.7225 22.066 11.414 22.066 11.033V8.27474C22.066 7.89376 21.7574 7.58518 21.3764 7.58518ZM18.6182 15.1704H0.689562C0.308579 15.1704 0 15.4789 0 15.8599V18.6182C0 18.9991 0.308579 19.3077 0.689562 19.3077H18.6182C18.9991 19.3077 19.3077 18.9991 19.3077 18.6182V15.8599C19.3077 15.4789 18.9991 15.1704 18.6182 15.1704Z" fill="#231F20"/>
</svg>
